<?xml version="1.0" standalone="no"?>
<!DOCTYPE svg PUBLIC "-//W3C//DTD SVG 20010904//EN"
 "http://www.w3.org/TR/2001/REC-SVG-20010904/DTD/svg10.dtd">
<svg version="1.0" xmlns="http://www.w3.org/2000/svg"
 width="260.000000pt" height="260.000000pt" viewBox="0 0 260.000000 260.000000"
 preserveAspectRatio="xMidYMid meet">
<metadata>
Created by potrace 1.14, written by Peter Selinger 2001-2017
</metadata>
<g transform="translate(0.000000,260.000000) scale(0.100000,-0.100000)"
fill="#000000" stroke="none">
<path d="M61 2583 c12 -14 12 -16 0 -8 -10 6 -12 4 -6 -5 8 -14 12 -35 14 -88
1 -21 5 -31 12 -26 8 5 8 1 0 -13 -7 -14 -7 -23 1 -31 7 -7 9 -12 5 -12 -3 0
-2 -11 3 -25 7 -18 6 -25 -2 -25 -9 0 -9 -3 -1 -11 6 -6 9 -18 6 -27 -5 -11
-3 -13 8 -7 12 8 12 6 0 -8 -7 -9 -9 -17 -4 -17 6 0 9 -19 8 -42 -2 -24 1 -53
6 -65 5 -15 5 -23 -2 -23 -6 0 -7 -5 -2 -12 10 -16 11 -118 1 -111 -11 6 -10
-5 3 -29 7 -13 7 -18 1 -14 -6 3 -13 2 -17 -4 -3 -5 -1 -10 6 -10 7 0 5 -8 -7
-22 -10 -12 -14 -19 -9 -15 6 3 17 2 25 -4 12 -7 11 -9 -5 -9 -18 0 -18 -1 3
-16 18 -13 21 -19 11 -30 -6 -8 -7 -14 -2 -14 6 0 8 -17 6 -37 -2 -21 -5 -43
-5 -50 -1 -7 -5 -10 -10 -7 -11 7 -58 -42 -49 -52 3 -4 1 -4 -6 0 -7 4 -21 -2
-33 -14 -20 -20 -20 -28 -20 -860 l0 -840 1300 0 1300 0 0 1300 0 1300 -1276
0 c-1198 0 -1276 -1 -1263 -17z"/>
</g>
</svg>
